STARTFONT 2.1
COMMENT rush-u12n
FONT -xos4-Terminus-Medium-R-Normal--14-120-72-72-C-60-Windows-CP1251
SIZE 14 72 72
FONTBOUNDINGBOX 8 14 0 -2
STARTPROPERTIES 21
FAMILY_NAME "Terminus Rush"
FOUNDRY "xos4"
SETWIDTH_NAME "Normal"
ADD_STYLE_NAME ""
COPYRIGHT "Copyright (C) 2012 Dimitar Toshkov Zhekov (Terminus font), SEGA (Sonic Rush font), Sonic SCANF"
NOTICE "Licensed under the SIL Open Font License, Version 1.1"
WEIGHT_NAME "Medium"
SLANT "R"
PIXEL_SIZE 14
POINT_SIZE 120
RESOLUTION_X 72
RESOLUTION_Y 72
SPACING "P"
AVERAGE_WIDTH 60
CHARSET_REGISTRY "Windows"
CHARSET_ENCODING "CP1251"
MIN_SPACE 6
FONT_ASCENT 10
FONT_DESCENT 2
DEFAULT_CHAR 46
_GBDFED_INFO "Edited with gbdfed 1.6."
ENDPROPERTIES
CHARS 255
STARTCHAR uni25AE
ENCODING 0
SWIDTH 428 0
DWIDTH 6 0
BBX 5 8 0 0
BITMAP
F8
F8
F8
F8
F8
F8
F8
F8
ENDCHAR
STARTCHAR blackdiamond
ENCODING 1
SWIDTH 428 0
DWIDTH 6 0
BBX 5 5 0 2
BITMAP
20
70
F8
70
20
ENDCHAR
STARTCHAR shade
ENCODING 2
SWIDTH 428 0
DWIDTH 6 0
BBX 6 12 0 -2
BITMAP
A8
54
A8
54
A8
54
A8
54
A8
54
A8
54
ENDCHAR
STARTCHAR uni2409
ENCODING 3
SWIDTH 428 0
DWIDTH 6 0
BBX 6 11 0 -1
BITMAP
90
90
F0
90
90
00
7C
10
10
10
10
ENDCHAR
STARTCHAR uni240C
ENCODING 4
SWIDTH 428 0
DWIDTH 6 0
BBX 6 11 0 -1
BITMAP
F0
80
E0
80
80
00
3C
20
38
20
20
ENDCHAR
STARTCHAR uni240D
ENCODING 5
SWIDTH 428 0
DWIDTH 6 0
BBX 6 11 0 -1
BITMAP
60
90
80
90
60
00
38
24
38
28
24
ENDCHAR
STARTCHAR uni240A
ENCODING 6
SWIDTH 428 0
DWIDTH 6 0
BBX 6 11 0 -1
BITMAP
80
80
80
80
F0
00
3C
20
38
20
20
ENDCHAR
STARTCHAR degree
ENCODING 7
SWIDTH 428 0
DWIDTH 6 0
BBX 3 3 1 6
BITMAP
40
A0
40
ENDCHAR
STARTCHAR plusminus
ENCODING 8
SWIDTH 428 0
DWIDTH 6 0
BBX 5 7 0 0
BITMAP
20
20
F8
20
20
00
F8
ENDCHAR
STARTCHAR uni2424
ENCODING 9
SWIDTH 428 0
DWIDTH 6 0
BBX 6 11 0 -1
BITMAP
90
D0
B0
90
90
00
20
20
20
20
3C
ENDCHAR
STARTCHAR uni240B
ENCODING 10
SWIDTH 428 0
DWIDTH 6 0
BBX 6 11 0 -1
BITMAP
88
88
88
50
20
00
7C
10
10
10
10
ENDCHAR
STARTCHAR SF040000
ENCODING 11
SWIDTH 428 0
DWIDTH 6 0
BBX 3 6 0 4
BITMAP
20
20
20
20
20
E0
ENDCHAR
STARTCHAR SF030000
ENCODING 12
SWIDTH 428 0
DWIDTH 6 0
BBX 3 7 0 -2
BITMAP
E0
20
20
20
20
20
20
ENDCHAR
STARTCHAR SF010000
ENCODING 13
SWIDTH 428 0
DWIDTH 6 0
BBX 4 7 2 -2
BITMAP
F0
80
80
80
80
80
80
ENDCHAR
STARTCHAR SF020000
ENCODING 14
SWIDTH 428 0
DWIDTH 6 0
BBX 4 6 2 4
BITMAP
80
80
80
80
80
F0
ENDCHAR
STARTCHAR SF050000
ENCODING 15
SWIDTH 428 0
DWIDTH 6 0
BBX 6 12 0 -2
BITMAP
20
20
20
20
20
FC
20
20
20
20
20
20
ENDCHAR
STARTCHAR uni23BA
ENCODING 16
SWIDTH 428 0
DWIDTH 6 0
BBX 6 1 0 9
BITMAP
FC
ENDCHAR
STARTCHAR uni23BB
ENCODING 17
SWIDTH 428 0
DWIDTH 6 0
BBX 6 1 0 6
BITMAP
FC
ENDCHAR
STARTCHAR SF100000
ENCODING 18
SWIDTH 428 0
DWIDTH 6 0
BBX 6 1 0 4
BITMAP
FC
ENDCHAR
STARTCHAR uni23BC
ENCODING 19
SWIDTH 428 0
DWIDTH 6 0
BBX 6 1 0 1
BITMAP
FC
ENDCHAR
STARTCHAR uni23BD
ENCODING 20
SWIDTH 428 0
DWIDTH 6 0
BBX 6 1 0 -2
BITMAP
FC
ENDCHAR
STARTCHAR SF080000
ENCODING 21
SWIDTH 428 0
DWIDTH 6 0
BBX 6 12 0 -2
BITMAP
20
20
20
20
20
3C
20
20
20
20
20
20
ENDCHAR
STARTCHAR SF090000
ENCODING 22
SWIDTH 428 0
DWIDTH 6 0
BBX 6 12 0 -2
BITMAP
20
20
20
20
20
E0
20
20
20
20
20
20
ENDCHAR
STARTCHAR SF070000
ENCODING 23
SWIDTH 428 0
DWIDTH 6 0
BBX 6 6 0 4
BITMAP
20
20
20
20
20
FC
ENDCHAR
STARTCHAR SF060000
ENCODING 24
SWIDTH 428 0
DWIDTH 6 0
BBX 6 7 0 -2
BITMAP
FC
20
20
20
20
20
20
ENDCHAR
STARTCHAR SF110000
ENCODING 25
SWIDTH 428 0
DWIDTH 6 0
BBX 6 12 0 -2
BITMAP
20
20
20
20
20
20
20
20
20
20
20
20
ENDCHAR
STARTCHAR lessequal
ENCODING 26
SWIDTH 428 0
DWIDTH 6 0
BBX 5 9 0 0
BITMAP
10
20
40
80
40
20
10
00
F8
ENDCHAR
STARTCHAR greaterequal
ENCODING 27
SWIDTH 428 0
DWIDTH 6 0
BBX 5 9 0 0
BITMAP
40
20
10
08
10
20
40
00
F8
ENDCHAR
STARTCHAR pi
ENCODING 28
SWIDTH 428 0
DWIDTH 6 0
BBX 5 6 0 0
BITMAP
F8
88
88
88
88
88
ENDCHAR
STARTCHAR notequal
ENCODING 29
SWIDTH 428 0
DWIDTH 6 0
BBX 5 6 0 1
BITMAP
08
F8
20
40
F8
80
ENDCHAR
STARTCHAR sterling
ENCODING 30
SWIDTH 428 0
DWIDTH 6 0
BBX 5 8 0 0
BITMAP
30
48
40
F0
40
40
48
F8
ENDCHAR
STARTCHAR periodcentered
ENCODING 31
SWIDTH 428 0
DWIDTH 6 0
BBX 1 2 2 3
BITMAP
80
80
ENDCHAR
STARTCHAR space
ENCODING 32
SWIDTH 285 0
DWIDTH 4 0
BBX 0 0 0 0
BITMAP
ENDCHAR
STARTCHAR exclam
ENCODING 33
SWIDTH 214 0
DWIDTH 3 0
BBX 1 11 1 0
BITMAP
80
80
80
80
80
80
80
80
00
80
80
ENDCHAR
STARTCHAR quotedbl
ENCODING 34
SWIDTH 428 0
DWIDTH 6 0
BBX 3 3 1 6
BITMAP
A0
A0
A0
ENDCHAR
STARTCHAR numbersign
ENCODING 35
SWIDTH 428 0
DWIDTH 6 0
BBX 5 8 0 0
BITMAP
50
50
F8
50
50
F8
50
50
ENDCHAR
STARTCHAR dollar
ENCODING 36
SWIDTH 428 0
DWIDTH 6 0
BBX 5 9 0 -1
BITMAP
20
70
A8
A0
70
28
A8
70
20
ENDCHAR
STARTCHAR percent
ENCODING 37
SWIDTH 428 0
DWIDTH 6 0
BBX 6 8 0 0
BITMAP
48
A8
50
10
20
28
54
48
ENDCHAR
STARTCHAR ampersand
ENCODING 38
SWIDTH 428 0
DWIDTH 6 0
BBX 5 8 0 0
BITMAP
20
50
50
20
68
90
90
68
ENDCHAR
STARTCHAR quotesingle
ENCODING 39
SWIDTH 428 0
DWIDTH 6 0
BBX 1 3 2 6
BITMAP
80
80
80
ENDCHAR
STARTCHAR parenleft
ENCODING 40
SWIDTH 285 0
DWIDTH 4 0
BBX 2 10 0 0
BITMAP
40
40
80
80
80
80
80
80
40
40
ENDCHAR
STARTCHAR parenright
ENCODING 41
SWIDTH 285 0
DWIDTH 4 0
BBX 2 10 1 0
BITMAP
80
80
40
40
40
40
40
40
80
80
ENDCHAR
STARTCHAR asterisk
ENCODING 42
SWIDTH 428 0
DWIDTH 6 0
BBX 5 5 0 1
BITMAP
50
20
F8
20
50
ENDCHAR
STARTCHAR plus
ENCODING 43
SWIDTH 428 0
DWIDTH 6 0
BBX 5 5 0 1
BITMAP
20
20
F8
20
20
ENDCHAR
STARTCHAR comma
ENCODING 44
SWIDTH 214 0
DWIDTH 3 0
BBX 2 3 0 -2
BITMAP
40
40
80
ENDCHAR
STARTCHAR hyphen
ENCODING 45
SWIDTH 285 0
DWIDTH 4 0
BBX 3 1 0 3
BITMAP
E0
ENDCHAR
STARTCHAR period
ENCODING 46
SWIDTH 142 0
DWIDTH 2 0
BBX 1 1 1 0
BITMAP
80
ENDCHAR
STARTCHAR slash
ENCODING 47
SWIDTH 428 0
DWIDTH 6 0
BBX 4 8 1 0
BITMAP
10
10
20
20
40
40
80
80
ENDCHAR
STARTCHAR zero
ENCODING 48
SWIDTH 428 0
DWIDTH 6 0
BBX 5 8 0 0
BITMAP
70
88
98
A8
C8
88
88
70
ENDCHAR
STARTCHAR one
ENCODING 49
SWIDTH 428 0
DWIDTH 6 0
BBX 3 8 1 0
BITMAP
40
C0
40
40
40
40
40
E0
ENDCHAR
STARTCHAR two
ENCODING 50
SWIDTH 428 0
DWIDTH 6 0
BBX 5 8 0 0
BITMAP
70
88
88
10
20
40
80
F8
ENDCHAR
STARTCHAR three
ENCODING 51
SWIDTH 428 0
DWIDTH 6 0
BBX 5 8 0 0
BITMAP
70
88
08
30
08
08
88
70
ENDCHAR
STARTCHAR four
ENCODING 52
SWIDTH 428 0
DWIDTH 6 0
BBX 5 8 0 0
BITMAP
08
18
28
48
88
F8
08
08
ENDCHAR
STARTCHAR five
ENCODING 53
SWIDTH 428 0
DWIDTH 6 0
BBX 5 8 0 0
BITMAP
F8
80
80
F0
08
08
88
70
ENDCHAR
STARTCHAR six
ENCODING 54
SWIDTH 428 0
DWIDTH 6 0
BBX 5 8 0 0
BITMAP
70
80
80
F0
88
88
88
70
ENDCHAR
STARTCHAR seven
ENCODING 55
SWIDTH 428 0
DWIDTH 6 0
BBX 5 8 0 0
BITMAP
F8
08
08
10
10
20
20
20
ENDCHAR
STARTCHAR eight
ENCODING 56
SWIDTH 428 0
DWIDTH 6 0
BBX 5 8 0 0
BITMAP
70
88
88
70
88
88
88
70
ENDCHAR
STARTCHAR nine
ENCODING 57
SWIDTH 428 0
DWIDTH 6 0
BBX 5 8 0 0
BITMAP
70
88
88
88
78
08
08
70
ENDCHAR
STARTCHAR colon
ENCODING 58
SWIDTH 428 0
DWIDTH 6 0
BBX 1 6 2 0
BITMAP
80
80
00
00
80
80
ENDCHAR
STARTCHAR semicolon
ENCODING 59
SWIDTH 428 0
DWIDTH 6 0
BBX 2 7 1 -1
BITMAP
40
40
00
00
40
40
80
ENDCHAR
STARTCHAR less
ENCODING 60
SWIDTH 428 0
DWIDTH 6 0
BBX 4 7 1 0
BITMAP
10
20
40
80
40
20
10
ENDCHAR
STARTCHAR equal
ENCODING 61
SWIDTH 428 0
DWIDTH 6 0
BBX 5 4 0 2
BITMAP
F8
00
00
F8
ENDCHAR
STARTCHAR greater
ENCODING 62
SWIDTH 428 0
DWIDTH 6 0
BBX 4 7 1 0
BITMAP
80
40
20
10
20
40
80
ENDCHAR
STARTCHAR question
ENCODING 63
SWIDTH 428 0
DWIDTH 6 0
BBX 5 11 0 0
BITMAP
70
88
88
08
10
20
20
00
00
20
20
ENDCHAR
STARTCHAR at
ENCODING 64
SWIDTH 428 0
DWIDTH 6 0
BBX 5 8 0 0
BITMAP
70
88
98
A8
A8
98
80
78
ENDCHAR
STARTCHAR A
ENCODING 65
SWIDTH 428 0
DWIDTH 6 0
BBX 5 10 0 0
BITMAP
70
88
88
88
F8
88
88
88
88
88
ENDCHAR
STARTCHAR B
ENCODING 66
SWIDTH 428 0
DWIDTH 6 0
BBX 5 10 0 0
BITMAP
F0
88
88
88
F0
88
88
88
88
F0
ENDCHAR
STARTCHAR C
ENCODING 67
SWIDTH 428 0
DWIDTH 6 0
BBX 5 10 0 0
BITMAP
70
88
88
80
80
80
80
88
88
70
ENDCHAR
STARTCHAR D
ENCODING 68
SWIDTH 428 0
DWIDTH 6 0
BBX 5 10 0 0
BITMAP
E0
90
88
88
88
88
88
88
90
E0
ENDCHAR
STARTCHAR E
ENCODING 69
SWIDTH 357 0
DWIDTH 5 0
BBX 4 10 0 0
BITMAP
F0
80
80
80
F0
80
80
80
80
F0
ENDCHAR
STARTCHAR F
ENCODING 70
SWIDTH 428 0
DWIDTH 6 0
BBX 5 10 0 0
BITMAP
F8
80
80
80
F8
80
80
80
80
80
ENDCHAR
STARTCHAR G
ENCODING 71
SWIDTH 428 0
DWIDTH 6 0
BBX 5 10 0 0
BITMAP
70
88
88
80
80
98
88
88
88
78
ENDCHAR
STARTCHAR H
ENCODING 72
SWIDTH 428 0
DWIDTH 6 0
BBX 5 10 0 0
BITMAP
88
88
88
88
F8
88
88
88
88
88
ENDCHAR
STARTCHAR I
ENCODING 73
SWIDTH 285 0
DWIDTH 4 0
BBX 3 10 0 0
BITMAP
E0
40
40
40
40
40
40
40
40
E0
ENDCHAR
STARTCHAR J
ENCODING 74
SWIDTH 428 0
DWIDTH 6 0
BBX 5 10 0 0
BITMAP
08
08
08
08
08
08
88
88
88
70
ENDCHAR
STARTCHAR K
ENCODING 75
SWIDTH 428 0
DWIDTH 6 0
BBX 5 10 0 0
BITMAP
88
90
90
A0
C0
A0
A0
90
90
88
ENDCHAR
STARTCHAR L
ENCODING 76
SWIDTH 357 0
DWIDTH 5 0
BBX 4 10 0 0
BITMAP
80
80
80
80
80
80
80
80
80
F0
ENDCHAR
STARTCHAR M
ENCODING 77
SWIDTH 428 0
DWIDTH 6 0
BBX 5 10 0 0
BITMAP
88
88
D8
D8
D8
A8
A8
A8
88
88
ENDCHAR
STARTCHAR N
ENCODING 78
SWIDTH 357 0
DWIDTH 5 0
BBX 4 10 0 0
BITMAP
90
90
D0
D0
D0
B0
B0
B0
90
90
ENDCHAR
STARTCHAR O
ENCODING 79
SWIDTH 428 0
DWIDTH 6 0
BBX 5 10 0 0
BITMAP
70
88
88
88
88
88
88
88
88
70
ENDCHAR
STARTCHAR P
ENCODING 80
SWIDTH 428 0
DWIDTH 6 0
BBX 5 10 0 0
BITMAP
F0
88
88
88
88
F0
80
80
80
80
ENDCHAR
STARTCHAR Q
ENCODING 81
SWIDTH 357 0
DWIDTH 5 0
BBX 5 11 0 -1
BITMAP
70
88
88
88
88
88
88
F8
88
78
08
ENDCHAR
STARTCHAR R
ENCODING 82
SWIDTH 428 0
DWIDTH 6 0
BBX 5 10 0 0
BITMAP
F0
88
88
88
88
F0
90
90
88
88
ENDCHAR
STARTCHAR S
ENCODING 83
SWIDTH 428 0
DWIDTH 6 0
BBX 5 10 0 0
BITMAP
70
88
88
80
70
08
08
88
88
70
ENDCHAR
STARTCHAR T
ENCODING 84
SWIDTH 428 0
DWIDTH 6 0
BBX 5 10 0 0
BITMAP
F8
20
20
20
20
20
20
20
20
20
ENDCHAR
STARTCHAR U
ENCODING 85
SWIDTH 428 0
DWIDTH 6 0
BBX 5 10 0 0
BITMAP
88
88
88
88
88
88
88
88
88
70
ENDCHAR
STARTCHAR V
ENCODING 86
SWIDTH 428 0
DWIDTH 6 0
BBX 5 10 0 0
BITMAP
88
88
88
50
50
50
50
20
20
20
ENDCHAR
STARTCHAR W
ENCODING 87
SWIDTH 571 0
DWIDTH 8 0
BBX 7 10 0 0
BITMAP
92
92
92
92
92
92
92
92
92
6C
ENDCHAR
STARTCHAR X
ENCODING 88
SWIDTH 428 0
DWIDTH 6 0
BBX 5 10 0 0
BITMAP
88
88
50
50
20
20
50
50
88
88
ENDCHAR
STARTCHAR Y
ENCODING 89
SWIDTH 428 0
DWIDTH 6 0
BBX 5 10 0 0
BITMAP
88
88
50
50
50
20
20
20
20
20
ENDCHAR
STARTCHAR Z
ENCODING 90
SWIDTH 428 0
DWIDTH 6 0
BBX 5 10 0 0
BITMAP
F8
10
10
20
20
20
20
40
40
F8
ENDCHAR
STARTCHAR bracketleft
ENCODING 91
SWIDTH 428 0
DWIDTH 6 0
BBX 3 8 1 0
BITMAP
E0
80
80
80
80
80
80
E0
ENDCHAR
STARTCHAR backslash
ENCODING 92
SWIDTH 428 0
DWIDTH 6 0
BBX 4 8 1 0
BITMAP
80
80
40
40
20
20
10
10
ENDCHAR
STARTCHAR bracketright
ENCODING 93
SWIDTH 428 0
DWIDTH 6 0
BBX 3 8 1 0
BITMAP
E0
20
20
20
20
20
20
E0
ENDCHAR
STARTCHAR asciicircum
ENCODING 94
SWIDTH 428 0
DWIDTH 6 0
BBX 5 3 0 6
BITMAP
20
50
88
ENDCHAR
STARTCHAR underscore
ENCODING 95
SWIDTH 428 0
DWIDTH 6 0
BBX 5 1 0 -1
BITMAP
F8
ENDCHAR
STARTCHAR grave
ENCODING 96
SWIDTH 428 0
DWIDTH 6 0
BBX 2 2 1 8
BITMAP
80
40
ENDCHAR
STARTCHAR a
ENCODING 97
SWIDTH 357 0
DWIDTH 5 0
BBX 4 7 0 0
BITMAP
60
90
10
70
90
90
70
ENDCHAR
STARTCHAR b
ENCODING 98
SWIDTH 357 0
DWIDTH 5 0
BBX 4 10 0 0
BITMAP
80
80
80
E0
90
90
90
90
90
E0
ENDCHAR
STARTCHAR c
ENCODING 99
SWIDTH 357 0
DWIDTH 5 0
BBX 4 7 0 0
BITMAP
60
90
80
80
80
90
60
ENDCHAR
STARTCHAR d
ENCODING 100
SWIDTH 357 0
DWIDTH 5 0
BBX 4 10 0 0
BITMAP
10
10
10
70
90
90
90
90
90
70
ENDCHAR
STARTCHAR e
ENCODING 101
SWIDTH 357 0
DWIDTH 5 0
BBX 4 7 0 0
BITMAP
60
90
90
F0
80
90
60
ENDCHAR
STARTCHAR f
ENCODING 102
SWIDTH 357 0
DWIDTH 5 0
BBX 4 10 0 0
BITMAP
30
40
40
F0
40
40
40
40
40
40
ENDCHAR
STARTCHAR g
ENCODING 103
SWIDTH 357 0
DWIDTH 5 0
BBX 4 9 0 -2
BITMAP
70
90
90
90
90
90
70
10
E0
ENDCHAR
STARTCHAR h
ENCODING 104
SWIDTH 357 0
DWIDTH 5 0
BBX 4 10 0 0
BITMAP
80
80
80
E0
90
90
90
90
90
90
ENDCHAR
STARTCHAR i
ENCODING 105
SWIDTH 142 0
DWIDTH 2 0
BBX 1 10 0 0
BITMAP
80
80
00
80
80
80
80
80
80
80
ENDCHAR
STARTCHAR j
ENCODING 106
SWIDTH 214 0
DWIDTH 3 0
BBX 2 12 0 -2
BITMAP
40
40
00
40
40
40
40
40
40
40
40
80
ENDCHAR
STARTCHAR k
ENCODING 107
SWIDTH 357 0
DWIDTH 5 0
BBX 4 10 0 0
BITMAP
80
80
80
90
A0
C0
C0
A0
A0
90
ENDCHAR
STARTCHAR l
ENCODING 108
SWIDTH 142 0
DWIDTH 2 0
BBX 1 10 0 0
BITMAP
80
80
80
80
80
80
80
80
80
80
ENDCHAR
STARTCHAR m
ENCODING 109
SWIDTH 571 0
DWIDTH 8 0
BBX 7 7 0 0
BITMAP
EC
92
92
92
92
92
92
ENDCHAR
STARTCHAR n
ENCODING 110
SWIDTH 357 0
DWIDTH 5 0
BBX 4 7 0 0
BITMAP
E0
90
90
90
90
90
90
ENDCHAR
STARTCHAR o
ENCODING 111
SWIDTH 357 0
DWIDTH 5 0
BBX 4 7 0 0
BITMAP
60
90
90
90
90
90
60
ENDCHAR
STARTCHAR p
ENCODING 112
SWIDTH 357 0
DWIDTH 5 0
BBX 4 9 0 -2
BITMAP
E0
90
90
90
90
90
E0
80
80
ENDCHAR
STARTCHAR q
ENCODING 113
SWIDTH 357 0
DWIDTH 5 0
BBX 4 9 0 -2
BITMAP
70
90
90
90
90
90
70
10
10
ENDCHAR
STARTCHAR r
ENCODING 114
SWIDTH 285 0
DWIDTH 4 0
BBX 3 7 0 0
BITMAP
60
80
80
80
80
80
80
ENDCHAR
STARTCHAR s
ENCODING 115
SWIDTH 357 0
DWIDTH 5 0
BBX 4 7 0 0
BITMAP
60
90
80
60
10
90
60
ENDCHAR
STARTCHAR t
ENCODING 116
SWIDTH 357 0
DWIDTH 5 0
BBX 4 9 0 0
BITMAP
40
40
F0
40
40
40
40
40
30
ENDCHAR
STARTCHAR u
ENCODING 117
SWIDTH 357 0
DWIDTH 5 0
BBX 4 7 0 0
BITMAP
90
90
90
90
90
90
70
ENDCHAR
STARTCHAR v
ENCODING 118
SWIDTH 357 0
DWIDTH 5 0
BBX 4 7 0 0
BITMAP
90
90
90
90
90
60
60
ENDCHAR
STARTCHAR w
ENCODING 119
SWIDTH 428 0
DWIDTH 6 0
BBX 5 7 0 0
BITMAP
A8
A8
A8
A8
A8
A8
50
ENDCHAR
STARTCHAR x
ENCODING 120
SWIDTH 357 0
DWIDTH 5 0
BBX 4 7 0 0
BITMAP
90
90
70
60
60
90
90
ENDCHAR
STARTCHAR y
ENCODING 121
SWIDTH 357 0
DWIDTH 5 0
BBX 4 9 0 -2
BITMAP
90
90
90
90
90
90
70
10
E0
ENDCHAR
STARTCHAR z
ENCODING 122
SWIDTH 357 0
DWIDTH 5 0
BBX 4 7 0 0
BITMAP
F0
10
20
20
40
40
F0
ENDCHAR
STARTCHAR braceleft
ENCODING 123
SWIDTH 428 0
DWIDTH 6 0
BBX 4 8 1 0
BITMAP
30
40
40
80
40
40
40
30
ENDCHAR
STARTCHAR bar
ENCODING 124
SWIDTH 428 0
DWIDTH 6 0
BBX 1 8 2 0
BITMAP
80
80
80
80
80
80
80
80
ENDCHAR
STARTCHAR braceright
ENCODING 125
SWIDTH 428 0
DWIDTH 6 0
BBX 4 8 1 0
BITMAP
C0
20
20
10
20
20
20
C0
ENDCHAR
STARTCHAR asciitilde
ENCODING 126
SWIDTH 428 0
DWIDTH 6 0
BBX 5 3 0 6
BITMAP
48
A8
90
ENDCHAR
STARTCHAR house
ENCODING 127
SWIDTH 428 0
DWIDTH 6 0
BBX 5 6 0 0
BITMAP
20
50
88
88
88
F8
ENDCHAR
STARTCHAR afii10051
ENCODING 128
SWIDTH 428 0
DWIDTH 6 0
BBX 5 10 0 -2
BITMAP
E0
40
40
70
48
48
48
48
08
10
ENDCHAR
STARTCHAR afii10052
ENCODING 129
SWIDTH 428 0
DWIDTH 6 0
BBX 5 10 0 0
BITMAP
10
20
F8
80
80
80
80
80
80
80
ENDCHAR
STARTCHAR quotesinglbase
ENCODING 130
SWIDTH 428 0
DWIDTH 6 0
BBX 2 3 1 -1
BITMAP
40
40
80
ENDCHAR
STARTCHAR afii10100
ENCODING 131
SWIDTH 428 0
DWIDTH 6 0
BBX 5 8 0 0
BITMAP
10
20
F8
80
80
80
80
80
ENDCHAR
STARTCHAR quotedblbase
ENCODING 132
SWIDTH 428 0
DWIDTH 6 0
BBX 4 3 0 -1
BITMAP
50
50
A0
ENDCHAR
STARTCHAR ellipsis
ENCODING 133
SWIDTH 714 0
DWIDTH 10 0
BBX 8 1 0 0
BITMAP
49
ENDCHAR
STARTCHAR dagger
ENCODING 134
SWIDTH 428 0
DWIDTH 6 0
BBX 3 8 1 0
BITMAP
40
E0
40
40
40
40
40
40
ENDCHAR
STARTCHAR daggerdbl
ENCODING 135
SWIDTH 428 0
DWIDTH 6 0
BBX 3 8 1 0
BITMAP
40
E0
40
40
40
40
E0
40
ENDCHAR
STARTCHAR Euro
ENCODING 136
SWIDTH 428 0
DWIDTH 6 0
BBX 6 7 0 0
BITMAP
38
44
F0
40
F0
44
38
ENDCHAR
STARTCHAR perthousand
ENCODING 137
SWIDTH 428 0
DWIDTH 6 0
BBX 6 8 0 0
BITMAP
44
A8
50
20
40
A8
54
28
ENDCHAR
STARTCHAR afii10058
ENCODING 138
SWIDTH 428 0
DWIDTH 6 0
BBX 5 8 0 0
BITMAP
60
A0
B0
A8
A8
A8
A8
B0
ENDCHAR
STARTCHAR guilsinglleft
ENCODING 139
SWIDTH 428 0
DWIDTH 6 0
BBX 4 7 1 0
BITMAP
10
20
40
80
40
20
10
ENDCHAR
STARTCHAR afii10059
ENCODING 140
SWIDTH 428 0
DWIDTH 6 0
BBX 5 8 0 0
BITMAP
A0
A0
B0
E8
A8
A8
A8
B0
ENDCHAR
STARTCHAR afii10061
ENCODING 141
SWIDTH 428 0
DWIDTH 6 0
BBX 5 10 0 0
BITMAP
10
20
88
90
A0
C0
C0
A0
90
88
ENDCHAR
STARTCHAR afii10060
ENCODING 142
SWIDTH 428 0
DWIDTH 6 0
BBX 5 8 0 0
BITMAP
E0
40
40
70
48
48
48
48
ENDCHAR
STARTCHAR afii10145
ENCODING 143
SWIDTH 428 0
DWIDTH 6 0
BBX 5 10 0 -2
BITMAP
88
88
88
88
88
88
88
F8
20
20
ENDCHAR
STARTCHAR afii10099
ENCODING 144
SWIDTH 428 0
DWIDTH 6 0
BBX 5 10 0 -2
BITMAP
40
F0
40
70
48
48
48
48
08
10
ENDCHAR
STARTCHAR quoteleft
ENCODING 145
SWIDTH 428 0
DWIDTH 6 0
BBX 2 3 2 6
BITMAP
40
80
80
ENDCHAR
STARTCHAR quoteright
ENCODING 146
SWIDTH 428 0
DWIDTH 6 0
BBX 2 3 1 6
BITMAP
40
40
80
ENDCHAR
STARTCHAR quotedblleft
ENCODING 147
SWIDTH 428 0
DWIDTH 6 0
BBX 4 3 1 6
BITMAP
50
A0
A0
ENDCHAR
STARTCHAR quotedblright
ENCODING 148
SWIDTH 428 0
DWIDTH 6 0
BBX 4 3 1 6
BITMAP
50
50
A0
ENDCHAR
STARTCHAR bullet
ENCODING 149
SWIDTH 428 0
DWIDTH 6 0
BBX 4 4 1 2
BITMAP
60
F0
F0
60
ENDCHAR
STARTCHAR endash
ENCODING 150
SWIDTH 428 0
DWIDTH 6 0
BBX 5 1 0 3
BITMAP
F8
ENDCHAR
STARTCHAR emdash
ENCODING 151
SWIDTH 428 0
DWIDTH 6 0
BBX 5 1 0 3
BITMAP
F8
ENDCHAR
STARTCHAR trademark
ENCODING 153
SWIDTH 428 0
DWIDTH 6 0
BBX 6 4 0 4
BITMAP
F4
5C
54
54
ENDCHAR
STARTCHAR afii10106
ENCODING 154
SWIDTH 428 0
DWIDTH 6 0
BBX 5 6 0 0
BITMAP
60
A0
B0
A8
A8
B0
ENDCHAR
STARTCHAR guilsinglright
ENCODING 155
SWIDTH 428 0
DWIDTH 6 0
BBX 4 7 1 0
BITMAP
80
40
20
10
20
40
80
ENDCHAR
STARTCHAR afii10107
ENCODING 156
SWIDTH 428 0
DWIDTH 6 0
BBX 5 6 0 0
BITMAP
A0
A0
F0
A8
A8
B0
ENDCHAR
STARTCHAR afii10109
ENCODING 157
SWIDTH 428 0
DWIDTH 6 0
BBX 4 8 1 0
BITMAP
10
20
90
A0
C0
C0
A0
90
ENDCHAR
STARTCHAR afii10108
ENCODING 158
SWIDTH 428 0
DWIDTH 6 0
BBX 5 8 0 0
BITMAP
40
F0
40
70
48
48
48
48
ENDCHAR
STARTCHAR afii10193
ENCODING 159
SWIDTH 428 0
DWIDTH 6 0
BBX 5 8 0 -2
BITMAP
88
88
88
88
88
F8
20
20
ENDCHAR
STARTCHAR nbspace
ENCODING 160
SWIDTH 428 0
DWIDTH 6 0
BBX 0 0 0 0
BITMAP
ENDCHAR
STARTCHAR afii10062
ENCODING 161
SWIDTH 428 0
DWIDTH 6 0
BBX 5 10 0 0
BITMAP
50
20
88
88
88
88
78
08
08
70
ENDCHAR
STARTCHAR afii10110
ENCODING 162
SWIDTH 428 0
DWIDTH 6 0
BBX 5 10 0 -2
BITMAP
50
20
88
88
88
88
88
78
08
70
ENDCHAR
STARTCHAR afii10057
ENCODING 163
SWIDTH 428 0
DWIDTH 6 0
BBX 5 8 0 0
BITMAP
38
10
10
10
10
90
90
60
ENDCHAR
STARTCHAR currency
ENCODING 164
SWIDTH 428 0
DWIDTH 6 0
BBX 4 6 1 1
BITMAP
90
60
90
90
60
90
ENDCHAR
STARTCHAR afii10050
ENCODING 165
SWIDTH 428 0
DWIDTH 6 0
BBX 5 10 0 0
BITMAP
08
08
F8
80
80
80
80
80
80
80
ENDCHAR
STARTCHAR brokenbar
ENCODING 166
SWIDTH 428 0
DWIDTH 6 0
BBX 1 8 2 0
BITMAP
80
80
80
00
00
80
80
80
ENDCHAR
STARTCHAR section
ENCODING 167
SWIDTH 428 0
DWIDTH 6 0
BBX 4 9 1 0
BITMAP
60
90
40
A0
90
50
20
90
60
ENDCHAR
STARTCHAR afii10023
ENCODING 168
SWIDTH 428 0
DWIDTH 6 0
BBX 5 12 0 0
BITMAP
50
00
F8
80
80
80
F8
80
80
80
80
F8
ENDCHAR
STARTCHAR copyright
ENCODING 169
SWIDTH 428 0
DWIDTH 6 0
BBX 6 8 0 0
BITMAP
78
84
B4
A4
A4
B4
84
78
ENDCHAR
STARTCHAR afii10053
ENCODING 170
SWIDTH 428 0
DWIDTH 6 0
BBX 5 8 0 0
BITMAP
70
88
80
F0
80
80
88
70
ENDCHAR
STARTCHAR guillemotleft
ENCODING 171
SWIDTH 428 0
DWIDTH 6 0
BBX 6 7 0 0
BITMAP
14
28
50
A0
50
28
14
ENDCHAR
STARTCHAR logicalnot
ENCODING 172
SWIDTH 428 0
DWIDTH 6 0
BBX 5 4 0 2
BITMAP
F8
08
08
08
ENDCHAR
STARTCHAR softhyphen
ENCODING 173
SWIDTH 428 0
DWIDTH 6 0
BBX 4 1 1 3
BITMAP
F0
ENDCHAR
STARTCHAR registered
ENCODING 174
SWIDTH 428 0
DWIDTH 6 0
BBX 6 8 0 0
BITMAP
78
84
B4
AC
B4
AC
84
78
ENDCHAR
STARTCHAR afii10056
ENCODING 175
SWIDTH 428 0
DWIDTH 6 0
BBX 3 10 1 0
BITMAP
A0
A0
E0
40
40
40
40
40
40
E0
ENDCHAR
STARTCHAR degree
ENCODING 176
SWIDTH 428 0
DWIDTH 6 0
BBX 3 3 1 6
BITMAP
40
A0
40
ENDCHAR
STARTCHAR plusminus
ENCODING 177
SWIDTH 428 0
DWIDTH 6 0
BBX 5 7 0 0
BITMAP
20
20
F8
20
20
00
F8
ENDCHAR
STARTCHAR afii10055
ENCODING 178
SWIDTH 428 0
DWIDTH 6 0
BBX 3 8 1 0
BITMAP
E0
40
40
40
40
40
40
E0
ENDCHAR
STARTCHAR afii10103
ENCODING 179
SWIDTH 428 0
DWIDTH 6 0
BBX 3 9 1 0
BITMAP
40
40
00
C0
40
40
40
40
E0
ENDCHAR
STARTCHAR afii10098
ENCODING 180
SWIDTH 428 0
DWIDTH 6 0
BBX 5 8 0 0
BITMAP
08
08
F8
80
80
80
80
80
ENDCHAR
STARTCHAR mu
ENCODING 181
SWIDTH 428 0
DWIDTH 6 0
BBX 5 8 0 -2
BITMAP
88
88
88
88
98
E8
80
80
ENDCHAR
STARTCHAR paragraph
ENCODING 182
SWIDTH 428 0
DWIDTH 6 0
BBX 5 8 0 0
BITMAP
78
A8
A8
A8
68
28
28
28
ENDCHAR
STARTCHAR periodcentered
ENCODING 183
SWIDTH 428 0
DWIDTH 6 0
BBX 1 2 2 3
BITMAP
80
80
ENDCHAR
STARTCHAR afii10071
ENCODING 184
SWIDTH 357 0
DWIDTH 5 0
BBX 4 9 0 0
BITMAP
90
00
60
90
90
F0
80
90
60
ENDCHAR
STARTCHAR afii61352
ENCODING 185
SWIDTH 428 0
DWIDTH 6 0
BBX 6 8 0 0
BITMAP
94
94
D0
F0
F0
B4
90
94
ENDCHAR
STARTCHAR afii10101
ENCODING 186
SWIDTH 428 0
DWIDTH 6 0
BBX 5 6 0 0
BITMAP
70
88
E0
80
88
70
ENDCHAR
STARTCHAR guillemotright
ENCODING 187
SWIDTH 428 0
DWIDTH 6 0
BBX 6 7 0 0
BITMAP
A0
50
28
14
28
50
A0
ENDCHAR
STARTCHAR afii10105
ENCODING 188
SWIDTH 428 0
DWIDTH 6 0
BBX 4 11 1 -2
BITMAP
10
10
00
30
10
10
10
10
10
90
60
ENDCHAR
STARTCHAR afii10054
ENCODING 189
SWIDTH 428 0
DWIDTH 6 0
BBX 5 8 0 0
BITMAP
70
88
80
70
08
08
88
70
ENDCHAR
STARTCHAR afii10102
ENCODING 190
SWIDTH 428 0
DWIDTH 6 0
BBX 5 6 0 0
BITMAP
78
80
70
08
08
F0
ENDCHAR
STARTCHAR afii10104
ENCODING 191
SWIDTH 428 0
DWIDTH 6 0
BBX 3 8 1 0
BITMAP
A0
A0
C0
40
40
40
40
E0
ENDCHAR
STARTCHAR afii10017
ENCODING 192
SWIDTH 428 0
DWIDTH 6 0
BBX 5 10 0 0
BITMAP
70
88
88
88
F8
88
88
88
88
88
ENDCHAR
STARTCHAR afii10018
ENCODING 193
SWIDTH 428 0
DWIDTH 6 0
BBX 5 10 0 0
BITMAP
F8
80
80
80
F0
88
88
88
88
F0
ENDCHAR
STARTCHAR afii10019
ENCODING 194
SWIDTH 428 0
DWIDTH 6 0
BBX 5 10 0 0
BITMAP
F0
88
88
88
F0
88
88
88
88
F0
ENDCHAR
STARTCHAR afii10020
ENCODING 195
SWIDTH 428 0
DWIDTH 6 0
BBX 5 10 0 0
BITMAP
F8
80
80
80
80
80
80
80
80
80
ENDCHAR
STARTCHAR afii10021
ENCODING 196
SWIDTH 500 0
DWIDTH 7 0
BBX 6 12 0 -2
BITMAP
38
48
48
48
48
48
48
48
48
FC
84
84
ENDCHAR
STARTCHAR afii10022
ENCODING 197
SWIDTH 428 0
DWIDTH 6 0
BBX 5 10 0 0
BITMAP
F8
80
80
80
F8
80
80
80
80
F8
ENDCHAR
STARTCHAR afii10024
ENCODING 198
SWIDTH 571 0
DWIDTH 8 0
BBX 7 10 0 0
BITMAP
92
92
54
54
38
38
54
54
92
92
ENDCHAR
STARTCHAR afii10025
ENCODING 199
SWIDTH 428 0
DWIDTH 6 0
BBX 5 10 0 0
BITMAP
70
88
88
08
30
08
08
88
88
70
ENDCHAR
STARTCHAR afii10026
ENCODING 200
SWIDTH 428 0
DWIDTH 6 0
BBX 5 10 0 0
BITMAP
88
88
98
98
A8
A8
C8
C8
88
88
ENDCHAR
STARTCHAR afii10027
ENCODING 201
SWIDTH 428 0
DWIDTH 6 0
BBX 5 12 0 0
BITMAP
50
20
88
88
98
98
A8
A8
C8
C8
88
88
ENDCHAR
STARTCHAR afii10028
ENCODING 202
SWIDTH 428 0
DWIDTH 6 0
BBX 5 10 0 0
BITMAP
88
90
90
A0
C0
A0
A0
90
90
88
ENDCHAR
STARTCHAR afii10029
ENCODING 203
SWIDTH 428 0
DWIDTH 6 0
BBX 5 10 0 0
BITMAP
38
48
48
48
48
48
48
48
48
88
ENDCHAR
STARTCHAR afii10030
ENCODING 204
SWIDTH 428 0
DWIDTH 6 0
BBX 5 10 0 0
BITMAP
88
88
D8
D8
D8
A8
A8
A8
88
88
ENDCHAR
STARTCHAR afii10031
ENCODING 205
SWIDTH 428 0
DWIDTH 6 0
BBX 5 10 0 0
BITMAP
88
88
88
88
F8
88
88
88
88
88
ENDCHAR
STARTCHAR afii10032
ENCODING 206
SWIDTH 428 0
DWIDTH 6 0
BBX 5 10 0 0
BITMAP
70
88
88
88
88
88
88
88
88
70
ENDCHAR
STARTCHAR afii10033
ENCODING 207
SWIDTH 428 0
DWIDTH 6 0
BBX 5 10 0 0
BITMAP
F8
88
88
88
88
88
88
88
88
88
ENDCHAR
STARTCHAR afii10034
ENCODING 208
SWIDTH 428 0
DWIDTH 6 0
BBX 5 10 0 0
BITMAP
F0
88
88
88
88
F0
80
80
80
80
ENDCHAR
STARTCHAR afii10035
ENCODING 209
SWIDTH 428 0
DWIDTH 6 0
BBX 5 10 0 0
BITMAP
70
88
88
80
80
80
80
88
88
70
ENDCHAR
STARTCHAR afii10036
ENCODING 210
SWIDTH 428 0
DWIDTH 6 0
BBX 5 10 0 0
BITMAP
F8
20
20
20
20
20
20
20
20
20
ENDCHAR
STARTCHAR afii10037
ENCODING 211
SWIDTH 428 0
DWIDTH 6 0
BBX 5 10 0 0
BITMAP
88
88
88
88
78
08
08
08
10
E0
ENDCHAR
STARTCHAR afii10038
ENCODING 212
SWIDTH 571 0
DWIDTH 8 0
BBX 7 10 0 0
BITMAP
10
7C
92
92
92
92
92
92
7C
10
ENDCHAR
STARTCHAR afii10039
ENCODING 213
SWIDTH 428 0
DWIDTH 6 0
BBX 5 10 0 0
BITMAP
88
88
50
50
20
20
50
50
88
88
ENDCHAR
STARTCHAR afii10040
ENCODING 214
SWIDTH 500 0
DWIDTH 7 0
BBX 6 12 0 -2
BITMAP
88
88
88
88
88
88
88
88
88
FC
04
04
ENDCHAR
STARTCHAR afii10041
ENCODING 215
SWIDTH 428 0
DWIDTH 6 0
BBX 5 10 0 0
BITMAP
88
88
88
88
78
08
08
08
08
08
ENDCHAR
STARTCHAR afii10042
ENCODING 216
SWIDTH 571 0
DWIDTH 8 0
BBX 7 10 0 0
BITMAP
92
92
92
92
92
92
92
92
92
FE
ENDCHAR
STARTCHAR afii10043
ENCODING 217
SWIDTH 642 0
DWIDTH 9 0
BBX 8 12 0 -2
BITMAP
92
92
92
92
92
92
92
92
92
FF
01
01
ENDCHAR
STARTCHAR afii10044
ENCODING 218
SWIDTH 500 0
DWIDTH 7 0
BBX 6 10 0 0
BITMAP
C0
40
40
40
78
44
44
44
44
78
ENDCHAR
STARTCHAR afii10045
ENCODING 219
SWIDTH 571 0
DWIDTH 8 0
BBX 7 10 0 0
BITMAP
82
82
82
82
F2
8A
8A
8A
8A
F2
ENDCHAR
STARTCHAR afii10046
ENCODING 220
SWIDTH 428 0
DWIDTH 6 0
BBX 5 10 0 0
BITMAP
80
80
80
80
F0
88
88
88
88
F0
ENDCHAR
STARTCHAR afii10047
ENCODING 221
SWIDTH 428 0
DWIDTH 6 0
BBX 5 10 0 0
BITMAP
70
88
08
08
38
08
08
08
88
70
ENDCHAR
STARTCHAR afii10048
ENCODING 222
SWIDTH 500 0
DWIDTH 7 0
BBX 6 10 0 0
BITMAP
98
A4
A4
A4
E4
A4
A4
A4
A4
98
ENDCHAR
STARTCHAR afii10049
ENCODING 223
SWIDTH 428 0
DWIDTH 6 0
BBX 5 10 0 0
BITMAP
78
88
88
88
88
78
48
48
88
88
ENDCHAR
STARTCHAR afii10065
ENCODING 224
SWIDTH 357 0
DWIDTH 5 0
BBX 4 7 0 0
BITMAP
60
90
10
70
90
90
70
ENDCHAR
STARTCHAR afii10066
ENCODING 225
SWIDTH 357 0
DWIDTH 5 0
BBX 4 10 0 0
BITMAP
70
80
80
E0
90
90
90
90
90
60
ENDCHAR
STARTCHAR afii10067
ENCODING 226
SWIDTH 357 0
DWIDTH 5 0
BBX 4 7 0 0
BITMAP
E0
90
90
E0
90
90
E0
ENDCHAR
STARTCHAR afii10068
ENCODING 227
SWIDTH 357 0
DWIDTH 5 0
BBX 4 7 0 0
BITMAP
F0
80
80
80
80
80
80
ENDCHAR
STARTCHAR afii10069
ENCODING 228
SWIDTH 500 0
DWIDTH 7 0
BBX 6 9 0 -2
BITMAP
38
48
48
48
48
48
78
84
84
ENDCHAR
STARTCHAR afii10070
ENCODING 229
SWIDTH 357 0
DWIDTH 5 0
BBX 4 7 0 0
BITMAP
60
90
90
F0
80
90
60
ENDCHAR
STARTCHAR afii10072
ENCODING 230
SWIDTH 571 0
DWIDTH 8 0
BBX 7 7 0 0
BITMAP
92
92
54
38
54
92
92
ENDCHAR
STARTCHAR afii10073
ENCODING 231
SWIDTH 357 0
DWIDTH 5 0
BBX 4 7 0 0
BITMAP
60
90
10
60
10
90
60
ENDCHAR
STARTCHAR afii10074
ENCODING 232
SWIDTH 357 0
DWIDTH 5 0
BBX 4 7 0 0
BITMAP
90
B0
B0
D0
D0
90
90
ENDCHAR
STARTCHAR afii10075
ENCODING 233
SWIDTH 357 0
DWIDTH 5 0
BBX 4 10 0 0
BITMAP
90
60
00
90
B0
B0
D0
D0
90
90
ENDCHAR
STARTCHAR afii10076
ENCODING 234
SWIDTH 357 0
DWIDTH 5 0
BBX 4 7 0 0
BITMAP
90
A0
C0
C0
A0
A0
90
ENDCHAR
STARTCHAR afii10077
ENCODING 235
SWIDTH 428 0
DWIDTH 6 0
BBX 5 7 0 0
BITMAP
38
48
48
48
48
48
88
ENDCHAR
STARTCHAR afii10078
ENCODING 236
SWIDTH 428 0
DWIDTH 6 0
BBX 5 7 0 0
BITMAP
88
D8
D8
A8
A8
88
88
ENDCHAR
STARTCHAR afii10079
ENCODING 237
SWIDTH 357 0
DWIDTH 5 0
BBX 4 7 0 0
BITMAP
90
90
90
F0
90
90
90
ENDCHAR
STARTCHAR afii10080
ENCODING 238
SWIDTH 357 0
DWIDTH 5 0
BBX 4 7 0 0
BITMAP
60
90
90
90
90
90
60
ENDCHAR
STARTCHAR afii10081
ENCODING 239
SWIDTH 357 0
DWIDTH 5 0
BBX 4 7 0 0
BITMAP
F0
90
90
90
90
90
90
ENDCHAR
STARTCHAR afii10082
ENCODING 240
SWIDTH 357 0
DWIDTH 5 0
BBX 4 9 0 -2
BITMAP
E0
90
90
90
90
90
E0
80
80
ENDCHAR
STARTCHAR afii10083
ENCODING 241
SWIDTH 357 0
DWIDTH 5 0
BBX 4 7 0 0
BITMAP
60
90
80
80
80
90
60
ENDCHAR
STARTCHAR afii10084
ENCODING 242
SWIDTH 428 0
DWIDTH 6 0
BBX 5 7 0 0
BITMAP
F8
20
20
20
20
20
20
ENDCHAR
STARTCHAR afii10085
ENCODING 243
SWIDTH 357 0
DWIDTH 5 0
BBX 4 9 0 -2
BITMAP
90
90
90
90
90
90
70
10
E0
ENDCHAR
STARTCHAR afii10086
ENCODING 244
SWIDTH 571 0
DWIDTH 8 0
BBX 7 10 0 -2
BITMAP
10
10
7C
92
92
92
92
7C
10
10
ENDCHAR
STARTCHAR afii10087
ENCODING 245
SWIDTH 357 0
DWIDTH 5 0
BBX 4 7 0 0
BITMAP
90
90
60
60
60
90
90
ENDCHAR
STARTCHAR afii10088
ENCODING 246
SWIDTH 428 0
DWIDTH 6 0
BBX 5 9 0 -2
BITMAP
90
90
90
90
90
90
F8
08
08
ENDCHAR
STARTCHAR afii10089
ENCODING 247
SWIDTH 357 0
DWIDTH 5 0
BBX 4 7 0 0
BITMAP
90
90
90
70
10
10
10
ENDCHAR
STARTCHAR afii10090
ENCODING 248
SWIDTH 571 0
DWIDTH 8 0
BBX 7 7 0 0
BITMAP
92
92
92
92
92
92
FE
ENDCHAR
STARTCHAR afii10091
ENCODING 249
SWIDTH 642 0
DWIDTH 9 0
BBX 8 9 0 -2
BITMAP
92
92
92
92
92
92
FF
01
01
ENDCHAR
STARTCHAR afii10092
ENCODING 250
SWIDTH 428 0
DWIDTH 6 0
BBX 5 7 0 0
BITMAP
C0
40
70
48
48
48
70
ENDCHAR
STARTCHAR afii10093
ENCODING 251
SWIDTH 500 0
DWIDTH 7 0
BBX 6 7 0 0
BITMAP
84
84
E4
94
94
94
E4
ENDCHAR
STARTCHAR afii10094
ENCODING 252
SWIDTH 357 0
DWIDTH 5 0
BBX 4 7 0 0
BITMAP
80
80
E0
90
90
90
E0
ENDCHAR
STARTCHAR afii10095
ENCODING 253
SWIDTH 357 0
DWIDTH 5 0
BBX 4 7 0 0
BITMAP
E0
10
10
70
10
10
E0
ENDCHAR
STARTCHAR afii10096
ENCODING 254
SWIDTH 500 0
DWIDTH 7 0
BBX 6 7 0 0
BITMAP
98
A4
A4
E4
A4
A4
98
ENDCHAR
STARTCHAR afii10097
ENCODING 255
SWIDTH 357 0
DWIDTH 5 0
BBX 4 7 0 0
BITMAP
70
90
90
70
50
50
90
ENDCHAR
ENDFONT
